<svg width="1047" height="627" viewBox="0 0 1047 627" fill="none" xmlns="http://www.w3.org/2000/svg">
<path d="M529.062 34.6189L370.703 162.644C344.365 183.872 339.293 222.084 359.252 249.354C380.355 278.421 421.417 284.137 449.719 262.092L612.168 136.026C623.619 127.208 639.979 129.168 648.976 140.599C657.974 152.029 655.847 168.359 644.396 177.34L610.205 203.795L837.6 412.815V104.51H836.455L830.075 100.428L711.306 24.4945C686.276 8.49144 656.992 0 627.218 0C591.555 0 556.873 12.2473 529.062 34.6189ZM566.362 237.76L481.784 303.406C430.252 343.577 355.489 333.126 316.881 280.218C280.563 230.412 289.725 160.848 337.657 122.146L473.767 12.2473C454.791 4.24572 434.341 0.163294 413.565 0.163294C382.809 -2.49415e-06 352.872 9.14463 327.187 26.1275L209.4 104.51V470.295H255.533L405.058 606.485C437.122 635.715 486.691 633.429 515.975 601.423C524.972 591.462 531.025 579.867 534.134 567.784L561.945 593.258C593.845 622.488 643.578 620.365 672.861 588.522C680.223 580.521 685.621 571.213 689.057 561.578C720.794 582.807 763.983 578.398 790.649 549.331C819.932 517.488 817.805 467.846 785.904 438.616L566.362 237.76ZM26.175 104.51C11.7787 104.51 0 116.267 0 130.638V470.295C0 499.199 23.3939 522.55 52.35 522.55H104.7C133.656 522.55 157.05 499.199 157.05 470.295V104.51H26.175ZM78.525 418.04C85.467 418.04 92.1248 420.793 97.0335 425.693C101.942 430.593 104.7 437.238 104.7 444.168C104.7 451.097 101.942 457.743 97.0335 462.643C92.1248 467.543 85.467 470.295 78.525 470.295C71.583 470.295 64.9252 467.543 60.0165 462.643C55.1077 457.743 52.35 451.097 52.35 444.168C52.35 437.238 55.1077 430.593 60.0165 425.693C64.9252 420.793 71.583 418.04 78.525 418.04ZM889.95 104.51V470.295C889.95 499.199 913.344 522.55 942.3 522.55H994.65C1023.61 522.55 1047 499.199 1047 470.295V130.638C1047 116.267 1035.22 104.51 1020.82 104.51H889.95ZM942.3 444.168C942.3 437.238 945.058 430.593 949.966 425.693C954.875 420.793 961.533 418.04 968.475 418.04C975.417 418.04 982.075 420.793 986.984 425.693C991.892 430.593 994.65 437.238 994.65 444.168C994.65 451.097 991.892 457.743 986.984 462.643C982.075 467.543 975.417 470.295 968.475 470.295C961.533 470.295 954.875 467.543 949.966 462.643C945.058 457.743 942.3 451.097 942.3 444.168Z" fill="#36970E"/>
</svg>
