<svg width="1001" height="1109" viewBox="0 0 1001 1109" fill="none" xmlns="http://www.w3.org/2000/svg">
<path d="M649.297 1066.55C276.573 1152.86 129.267 867.014 129.267 867.014C333.676 1136.68 631.278 1053.07 631.278 1053.07C577.154 1058.5 402.827 880.505 402.827 880.505C207.435 705.224 15.0352 775.329 15.0352 775.329C171.357 1206.78 631.265 1096.23 631.265 1096.23C991.981 991.043 1001 697.108 1001 697.108C940.889 1018.01 649.297 1066.55 649.297 1066.55Z" fill="#36970E"/>
<path d="M372.764 807.697C360.743 804.983 548.601 730.814 548.601 730.814V721.388C530.185 716.052 512.033 711.352 494.133 707.195V686.66C594.596 707.949 598.118 582.556 598.118 582.556C535.772 586.356 506.896 606.043 494.133 627.227V591.824C576.14 540.838 482.124 451.297 482.124 451.297C409.703 529.915 452.931 573.844 475.624 589.454V616.503C459.657 598.867 429.457 584.754 372.539 586.21C372.539 586.21 386.004 702.786 475.624 683.535V703.157C357.34 677.908 251.806 676.836 170.342 683.721V666.761C270.805 688.037 274.301 562.643 274.301 562.643C211.968 566.47 183.092 586.131 170.342 607.314V571.911C252.336 520.912 158.334 431.385 158.334 431.385C85.8993 510.002 129.153 553.932 151.82 569.568V596.59C135.866 578.955 105.666 564.828 48.7487 566.298C48.7487 566.298 62.2135 682.86 151.82 663.61V685.468C57.5134 695.199 0 714.688 0 714.688L4.51475 741.644C234.489 711.974 372.764 807.697 372.764 807.697Z" fill="#36970E"/>
<path d="M521.562 931.73C581.671 1001.83 644.798 1022.06 644.798 1022.06C670.351 898.022 957.427 670.14 957.427 670.14H912.346C713.936 736.232 521.562 931.73 521.562 931.73Z" fill="#36970E"/>
<path d="M692.891 1034.19C979.981 941.183 994.995 670.152 994.995 670.152C825.155 765.876 692.891 1034.19 692.891 1034.19Z" fill="#36970E"/>
<path d="M692.888 566.275C692.888 566.275 706.366 682.837 795.946 663.586V680.692C602.686 703.676 395.299 823.867 395.299 823.867C402.819 831.956 491.499 906.125 491.499 906.125C613.238 772.629 847.713 676.919 847.713 676.919C836.738 677.144 825.63 677.806 814.468 678.786V666.751C914.931 688.027 918.44 562.634 918.44 562.634C856.121 566.447 827.232 586.121 814.468 607.304V571.901C896.475 520.902 802.473 431.375 802.473 431.375C730.025 509.992 773.28 553.922 795.959 569.545V596.58C780.005 578.932 749.806 564.805 692.888 566.275Z" fill="#36970E"/>
<path d="M508.492 264.315C460.908 264.315 422.195 225.602 422.195 178.019C422.195 130.435 460.908 91.709 508.492 91.709C556.089 91.709 594.802 130.422 594.802 178.019C594.802 225.616 556.075 264.315 508.492 264.315Z" fill="#36970E"/>
<path d="M521.726 0H495.246V74.725H521.726V0Z" fill="#36970E"/>
<path d="M521.726 283.224H495.246V357.949H521.726V283.224Z" fill="#36970E"/>
<path d="M687.457 165.735H612.732V192.215H687.457V165.735Z" fill="#36970E"/>
<path d="M404.24 165.735H329.502V192.215H404.24V165.735Z" fill="#36970E"/>
<path d="M644.42 296.204L591.574 243.366L572.851 262.092L625.696 314.93L644.42 296.204Z" fill="#36970E"/>
<path d="M444.128 95.8809L391.273 43.041L372.552 61.7673L425.407 114.607L444.128 95.8809Z" fill="#36970E"/>
<path d="M444.122 262.041L425.398 243.317L372.56 296.155L391.284 314.879L444.122 262.041Z" fill="#36970E"/>
<path d="M644.395 61.7676L625.672 43.0439L572.824 95.8913L591.548 114.615L644.395 61.7676Z" fill="#36970E"/>
</svg>
