<svg width="888" height="888" viewBox="0 0 888 888" fill="none" xmlns="http://www.w3.org/2000/svg">
<path d="M403.242 8.97627C429.084 -2.99209 458.916 -2.99209 484.758 8.97627L863.892 184.165C878.634 190.93 888 205.674 888 221.978C888 238.283 878.634 253.027 863.892 259.791L484.758 434.98C458.916 446.949 429.084 446.949 403.242 434.98L24.1078 259.791C9.36563 252.853 0 238.11 0 221.978C0 205.847 9.36563 190.93 24.1078 184.165L403.242 8.97627ZM771.623 363.517L863.892 406.187C878.634 412.952 888 427.695 888 444C888 460.305 878.634 475.048 863.892 481.813L484.758 657.002C458.916 668.97 429.084 668.97 403.242 657.002L24.1078 481.813C9.36563 474.875 0 460.131 0 444C0 427.869 9.36563 412.952 24.1078 406.187L116.377 363.517L380.002 485.282C420.586 504.015 467.414 504.015 507.998 485.282L771.623 363.517ZM507.998 707.304L771.623 585.539L863.892 628.209C878.634 634.973 888 649.717 888 666.022C888 682.326 878.634 697.07 863.892 703.835L484.758 879.024C458.916 890.992 429.084 890.992 403.242 879.024L24.1078 703.835C9.36563 696.897 0 682.153 0 666.022C0 649.89 9.36563 634.973 24.1078 628.209L116.377 585.539L380.002 707.304C420.586 726.037 467.414 726.037 507.998 707.304Z" fill="#36970E"/>
</svg>
