<svg width="1008" height="987" viewBox="0 0 1008 987" fill="none" xmlns="http://www.w3.org/2000/svg">
<path d="M1006.14 38.1871C1004.02 7.42524 966.894 -7.42529 944.618 14.8505C761.108 200.482 477.887 195.178 459.854 392.478C455.611 435.969 471.522 477.339 499.102 513.404C633.818 378.689 777.019 333.076 784.444 329.894C786.566 328.833 787.627 328.833 789.748 328.833C752.622 350.048 535.168 483.703 439.7 727.676C389.845 651.302 312.41 556.895 248.764 503.857C205.274 464.609 169.208 439.151 158.601 432.787C159.661 432.787 160.722 432.787 161.783 433.848C167.087 435.969 277.405 462.488 372.872 562.199C391.966 536.741 396.209 517.647 394.088 487.946C383.48 344.744 177.694 343.684 48.2823 205.786C32.371 188.814 4.79144 199.421 2.66993 221.697C-6.87684 350.048 5.85219 568.563 96.0161 632.208C145.871 668.274 224.367 662.97 285.891 635.391C338.928 695.854 389.845 767.985 412.12 813.597C401.513 857.088 395.148 903.761 394.088 952.556C394.088 970.588 408.938 986.5 426.971 986.5C426.971 986.5 426.971 986.5 428.032 986.5C446.064 986.5 460.915 971.649 461.976 953.616C464.097 804.05 524.56 683.124 594.57 591.9C680.491 639.634 790.809 652.363 866.122 600.386C991.291 515.526 1015.69 215.333 1006.14 38.1871Z" fill="#36970E"/>
<path d="M276.35 229.118C314.537 238.665 345.298 269.427 354.845 307.614C355.906 312.918 361.21 317.161 366.513 317.161C371.817 317.161 377.121 312.918 378.182 307.614C387.728 269.427 418.49 238.665 456.677 229.118C461.981 228.057 466.224 222.754 466.224 217.45C466.224 212.146 461.981 206.842 456.677 205.782C417.43 196.235 387.728 166.534 378.182 127.286C377.121 121.982 371.817 117.739 366.513 117.739C361.21 117.739 355.906 121.982 354.845 127.286C345.298 166.534 315.597 196.235 276.35 205.782C271.046 206.842 266.803 212.146 266.803 217.45C266.803 222.754 271.046 226.997 276.35 229.118Z" fill="#36970E"/>
<path d="M463.035 93.3462C494.857 100.771 521.376 127.29 528.801 159.113C529.862 163.356 534.105 166.538 538.348 166.538C543.652 166.538 546.834 163.356 547.895 159.113C555.32 127.29 581.839 100.771 613.662 93.3462C617.905 92.2855 621.087 88.0424 621.087 82.7387C621.087 77.4349 617.905 74.2527 613.662 73.1919C580.778 65.7666 555.32 40.3086 547.895 7.42526C546.834 3.18225 542.591 0 537.287 0C531.984 0 528.802 3.18225 527.741 7.42526C520.315 40.3086 494.857 65.7666 461.974 73.1919C457.731 74.2527 454.549 78.4957 454.549 82.7387C455.61 88.0424 458.792 92.2855 463.035 93.3462Z" fill="#36970E"/>
<path d="M110.869 141.08C140.57 148.505 164.967 172.902 172.392 202.603C173.453 206.846 177.696 210.028 181.939 210.028C186.182 210.028 190.425 206.846 191.486 202.603C198.911 172.902 223.308 148.505 253.009 141.08C257.252 140.019 260.435 135.776 260.435 131.533C260.435 127.29 257.252 123.047 253.009 121.986C222.248 114.561 198.911 91.2242 191.486 60.4624C190.425 56.2194 186.182 53.0371 181.939 53.0371C177.696 53.0371 173.453 56.2194 172.392 60.4624C164.967 91.2242 141.63 114.561 110.869 121.986C106.626 123.047 103.443 127.29 103.443 131.533C103.443 135.776 106.626 140.019 110.869 141.08Z" fill="#36970E"/>
</svg>
