<svg width="721" height="879" viewBox="0 0 721 879" fill="none" xmlns="http://www.w3.org/2000/svg">
<path d="M504.923 517.449C503.937 560.819 439.673 595.841 360.48 595.841C281.278 595.841 216.985 560.819 216.038 517.449C94.8921 528.531 8.25566e-07 630.355 8.25566e-07 754.421C-0.00976274 872.872 86.5833 878.721 199.958 878.721C212.328 878.721 225.011 878.642 237.958 878.642H483.033C495.95 878.642 508.652 878.721 521.003 878.721C634.378 878.721 721 872.892 721 754.421C721 630.345 626.069 528.502 504.923 517.449Z" fill="#36970E"/>
<path d="M167.487 376.366C172.447 377.674 177.651 378.426 183.06 378.445C215.631 465.693 282.863 548.517 360.542 548.517C435.966 548.517 501.528 470.496 535.105 386.129C537.546 383.503 540.094 380.925 542.193 378.162C545.689 377.889 549.116 377.42 552.396 376.61C577.157 370.498 595.424 349.409 595.424 324.238V281.708C595.424 257.026 577.82 236.337 553.802 229.805C553.382 227.969 552.855 226.163 552.386 224.357V180.85C552.386 81.1254 466.067 0 359.937 0C253.807 0 167.487 81.1254 167.487 180.841V228.965C167.438 229.2 167.36 229.434 167.302 229.668C143.235 236.19 125.592 256.987 125.592 281.708V324.238C125.592 349.047 143.322 369.883 167.487 376.366ZM359.937 37.7459C428.458 37.7459 486.531 80.4908 505.609 139.092C469.386 100.213 417.884 75.7457 360.532 75.7457C302.302 75.7457 250.097 100.985 213.786 140.927C232.239 81.4086 290.733 37.7459 359.937 37.7459ZM207.655 233.593C223.286 200.67 242.003 184.99 242.003 184.99C271.645 275.215 476.348 234.609 476.348 234.609C492.799 233.349 504.184 238.866 512.248 247.311V373.388C488.279 395.629 447.721 411.759 401.139 415.723C396.677 408.82 388.935 404.231 380.079 404.231H346.707C332.804 404.231 321.556 415.479 321.556 429.362C321.556 443.236 332.804 454.474 346.707 454.474H380.079C389.774 454.474 398.083 448.958 402.252 440.922C436.727 438.237 467.619 429.567 492.946 416.806C461.107 472.879 413.627 517.43 360.542 517.43C294.443 517.43 237.004 448.294 207.664 373.915L207.655 233.593Z" fill="#36970E"/>
</svg>
